<svg width="550" height="137" viewBox="0 0 550 137" fill="none" xmlns="http://www.w3.org/2000/svg">
<path d="M38.2153 39.5193H62.9428V11.2913C54.0759 11.1658 32.97 10.9902 19.4823 11.2913C5.99455 11.5924 0.874208 24.9661 0 31.6154V117.428C0 128.268 12.4887 134.992 18.733 137H104.53C117.718 137 123.263 123.953 124.387 117.428V71.511H95.5382V98.6098C95.5382 102.825 89.7931 106.388 86.921 107.643H38.2153C32.8202 107.643 30.2225 101.621 29.5981 98.6098V48.5522C29.5981 41.9281 35.3429 39.7702 38.2153 39.5193Z" fill="url(#paint0_linear_28_508)"/>
<path d="M82.4248 38.3901V18.8187H102.282V0H121.389V18.8187H102.282V38.3901H121.389V57.2088H102.282V38.3901H82.4248Z" fill="url(#paint1_linear_28_508)"/>
<path d="M155.139 75.2748V37.3364H170.946C173.428 37.3364 175.676 37.9145 177.69 39.0707C179.74 40.1908 181.359 41.7625 182.546 43.7859C183.769 45.8093 184.38 48.1579 184.38 50.8316C184.38 53.4692 183.769 55.8178 182.546 57.8773C181.359 59.9007 179.74 61.4905 177.69 62.6467C175.676 63.7668 173.428 64.3269 170.946 64.3269H162.854V75.2748H155.139ZM162.854 57.4979H170.029C171.252 57.4979 172.367 57.245 173.374 56.7392C174.381 56.1972 175.172 55.4384 175.748 54.4629C176.359 53.4512 176.665 52.2408 176.665 50.8316C176.665 49.4225 176.359 48.2301 175.748 47.2546C175.172 46.2429 174.381 45.4841 173.374 44.9783C172.367 44.4363 171.252 44.1653 170.029 44.1653H162.854V57.4979ZM189.221 75.2748V47.6339H196.666V75.2748H189.221ZM192.943 44.3279C191.684 44.3279 190.587 43.8762 189.652 42.9729C188.753 42.0335 188.304 40.9315 188.304 39.6669C188.304 38.4023 188.753 37.3183 189.652 36.415C190.587 35.4756 191.684 35.0059 192.943 35.0059C194.202 35.0059 195.281 35.4756 196.18 36.415C197.116 37.3183 197.583 38.4023 197.583 39.6669C197.583 40.9315 197.116 42.0335 196.18 42.9729C195.281 43.8762 194.202 44.3279 192.943 44.3279ZM201.716 75.2748L209.97 63.1887C208.531 62.4661 207.308 61.5628 206.301 60.4788C205.33 59.3587 204.575 58.0941 204.035 56.685C203.532 55.2758 203.28 53.7764 203.28 52.1866V47.6339H210.671V52.1866C210.671 53.126 210.869 54.0112 211.265 54.8423C211.661 55.6733 212.2 56.3779 212.883 56.956C213.567 57.4979 214.34 57.8773 215.203 58.0941L222.217 47.6339H230.31L222.379 59.2323C224.033 59.8465 225.436 60.7318 226.587 61.888C227.738 63.0442 228.619 64.3811 229.231 65.8986C229.842 67.38 230.148 68.9698 230.148 70.668V75.2748H222.756V70.668C222.756 69.5841 222.487 68.5904 221.947 67.6871C221.444 66.7838 220.742 66.0612 219.843 65.5192C218.98 64.9411 218.009 64.634 216.93 64.5979L209.808 75.2748H201.716ZM249.819 75.2748C246.69 75.2748 243.956 74.6786 241.618 73.4863C239.316 72.2578 237.518 70.5957 236.223 68.5001C234.964 66.4045 234.335 64.0559 234.335 61.4544C234.335 58.5277 234.928 55.9804 236.115 53.8125C237.302 51.6446 238.921 49.9645 240.971 48.7721C243.021 47.5797 245.341 46.9836 247.931 46.9836C251.024 46.9836 253.523 47.6339 255.43 48.9347C257.372 50.2354 258.793 51.9878 259.692 54.1919C260.591 56.3598 261.041 58.7806 261.041 61.4544C261.041 61.8157 261.023 62.2493 260.987 62.7551C260.951 63.2248 260.897 63.5862 260.825 63.8391H242.212C242.5 64.9592 242.985 65.8986 243.668 66.6574C244.388 67.4161 245.269 67.9943 246.312 68.3917C247.391 68.753 248.596 68.9337 249.927 68.9337H257.588V75.2748H249.819ZM242.158 58.8529H253.649C253.577 58.1664 253.452 57.5341 253.272 56.956C253.092 56.3417 252.84 55.7997 252.516 55.33C252.193 54.8603 251.815 54.4629 251.383 54.1377C250.952 53.8125 250.448 53.5596 249.873 53.3789C249.297 53.1983 248.668 53.1079 247.985 53.1079C247.085 53.1079 246.276 53.2705 245.557 53.5957C244.873 53.9209 244.298 54.3545 243.83 54.8965C243.363 55.4384 242.985 56.0527 242.697 56.7392C242.446 57.4257 242.266 58.1303 242.158 58.8529ZM266.248 75.2748V35.7104H273.64V75.2748H266.248ZM298.112 75.2748C295.162 75.2748 292.501 74.787 290.127 73.8115C287.753 72.7998 285.721 71.4268 284.031 69.6925C282.34 67.9581 281.027 65.9528 280.092 63.6765C279.193 61.3641 278.743 58.9071 278.743 56.3056C278.743 53.7041 279.193 51.2652 280.092 48.9889C281.027 46.6765 282.34 44.6531 284.031 42.9187C285.721 41.1844 287.753 39.8295 290.127 38.8539C292.501 37.8422 295.162 37.3364 298.112 37.3364H303.992V44.1653H298.274C296.547 44.1653 294.965 44.4724 293.526 45.0866C292.087 45.7009 290.828 46.5681 289.749 47.6881C288.706 48.7721 287.897 50.0548 287.322 51.5362C286.746 52.9815 286.458 54.5713 286.458 56.3056C286.458 58.0399 286.746 59.6478 287.322 61.1292C287.897 62.6106 288.706 63.8933 289.749 64.9772C290.828 66.0612 292.087 66.9103 293.526 67.5245C294.965 68.1388 296.547 68.4459 298.274 68.4459H303.992V75.2748H298.112ZM322.88 75.9252C320.038 75.9252 317.503 75.2929 315.273 74.0283C313.043 72.7275 311.28 70.9932 309.985 68.8253C308.691 66.6212 308.043 64.1643 308.043 61.4544C308.043 58.7445 308.691 56.3056 309.985 54.1377C311.28 51.9336 313.043 50.1993 315.273 48.9347C317.503 47.6339 320.038 46.9836 322.88 46.9836C325.721 46.9836 328.257 47.6339 330.487 48.9347C332.717 50.1993 334.479 51.9336 335.774 54.1377C337.069 56.3056 337.716 58.7445 337.716 61.4544C337.716 64.1643 337.069 66.6212 335.774 68.8253C334.479 70.9932 332.717 72.7275 330.487 74.0283C328.257 75.2929 325.721 75.9252 322.88 75.9252ZM322.88 69.5841C324.39 69.5841 325.685 69.2227 326.764 68.5001C327.879 67.7775 328.724 66.8019 329.3 65.5734C329.911 64.3449 330.217 62.9719 330.217 61.4544C330.217 59.9368 329.911 58.5638 329.3 57.3354C328.724 56.1069 327.879 55.1313 326.764 54.4087C325.685 53.686 324.39 53.3247 322.88 53.3247C321.369 53.3247 320.056 53.686 318.941 54.4087C317.862 55.1313 317.017 56.1069 316.406 57.3354C315.83 58.5638 315.542 59.9368 315.542 61.4544C315.542 62.9719 315.83 64.3449 316.406 65.5734C317.017 66.8019 317.862 67.7775 318.941 68.5001C320.056 69.2227 321.369 69.5841 322.88 69.5841ZM343.118 75.2748V59.3949C343.118 57.1186 343.64 55.041 344.683 53.1621C345.762 51.2833 347.308 49.7838 349.322 48.6637C351.337 47.5436 353.746 46.9836 356.552 46.9836C359.393 46.9836 361.803 47.5436 363.781 48.6637C365.795 49.7838 367.324 51.2833 368.367 53.1621C369.446 55.041 369.986 57.1186 369.986 59.3949V75.2748H362.594V59.3949C362.594 58.2748 362.325 57.2631 361.785 56.3598C361.246 55.4204 360.508 54.6797 359.573 54.1377C358.674 53.5957 357.667 53.3247 356.552 53.3247C355.437 53.3247 354.412 53.5957 353.477 54.1377C352.577 54.6797 351.858 55.4204 351.319 56.3598C350.779 57.2631 350.509 58.2748 350.509 59.3949V75.2748H343.118ZM376.995 75.2748V59.3949C376.995 57.1186 377.517 55.041 378.56 53.1621C379.639 51.2833 381.186 49.7838 383.2 48.6637C385.214 47.5436 387.624 46.9836 390.429 46.9836C393.271 46.9836 395.68 47.5436 397.659 48.6637C399.673 49.7838 401.202 51.2833 402.245 53.1621C403.324 55.041 403.863 57.1186 403.863 59.3949V75.2748H396.472V59.3949C396.472 58.2748 396.202 57.2631 395.663 56.3598C395.123 55.4204 394.386 54.6797 393.451 54.1377C392.551 53.5957 391.544 53.3247 390.429 53.3247C389.314 53.3247 388.289 53.5957 387.353 54.1377C386.455 54.6797 385.736 55.4204 385.196 56.3598C384.657 57.2631 384.387 58.2748 384.387 59.3949V75.2748H376.995ZM424.738 75.2748C421.608 75.2748 418.875 74.6786 416.537 73.4863C414.235 72.2578 412.437 70.5957 411.142 68.5001C409.883 66.4045 409.254 64.0559 409.254 61.4544C409.254 58.5277 409.847 55.9804 411.034 53.8125C412.221 51.6446 413.839 49.9645 415.89 48.7721C417.94 47.5797 420.26 46.9836 422.849 46.9836C425.943 46.9836 428.442 47.6339 430.348 48.9347C432.291 50.2354 433.711 51.9878 434.611 54.1919C435.51 56.3598 435.959 58.7806 435.959 61.4544C435.959 61.8157 435.941 62.2493 435.905 62.7551C435.869 63.2248 435.816 63.5862 435.744 63.8391H417.13C417.418 64.9592 417.904 65.8986 418.587 66.6574C419.307 67.4161 420.188 67.9943 421.231 68.3917C422.31 68.753 423.515 68.9337 424.845 68.9337H432.507V75.2748H424.738ZM417.077 58.8529H428.568C428.496 58.1664 428.37 57.5341 428.19 56.956C428.011 56.3417 427.759 55.7997 427.435 55.33C427.111 54.8603 426.734 54.4629 426.302 54.1377C425.871 53.8125 425.367 53.5596 424.792 53.3789C424.216 53.1983 423.587 53.1079 422.903 53.1079C422.004 53.1079 421.195 53.2705 420.475 53.5957C419.792 53.9209 419.217 54.3545 418.749 54.8965C418.281 55.4384 417.904 56.0527 417.616 56.7392C417.364 57.4257 417.184 58.1303 417.077 58.8529ZM454.385 75.2748C451.544 75.2748 449.008 74.6606 446.778 73.4321C444.548 72.2036 442.786 70.5596 441.491 68.5001C440.196 66.4045 439.549 64.0559 439.549 61.4544C439.549 58.8529 440.196 56.5224 441.491 54.4629C442.786 52.3672 444.548 50.7052 446.778 49.4767C449.008 48.2482 451.544 47.6339 454.385 47.6339H457.838V53.9751H454.385C452.875 53.9751 451.562 54.3003 450.447 54.9506C449.368 55.601 448.522 56.5043 447.911 57.6605C447.336 58.7806 447.048 60.0452 447.048 61.4544C447.048 62.8635 447.336 64.1462 447.911 65.3024C448.522 66.4225 449.368 67.3077 450.447 67.9581C451.562 68.6085 452.875 68.9337 454.385 68.9337H457.838V75.2748H454.385ZM472.529 75.2748C470.083 75.2748 468.159 74.5703 466.756 73.1611C465.39 71.752 464.706 69.837 464.706 67.4161V40.6966H472.098V67.1994C472.098 67.6691 472.259 68.0846 472.583 68.4459C472.943 68.7711 473.356 68.9337 473.824 68.9337H479.812V75.2748H472.529ZM460.013 53.9751V47.6339H479.812V53.9751H460.013Z" fill="black"/>
<path d="M151.31 119.687L167.937 82.8022H173.13L189.81 119.687H184.302L169.458 85.753H171.556L156.712 119.687H151.31ZM158.391 110.466L159.807 106.25H180.473L181.994 110.466H158.391ZM206.465 130.225C203.912 130.225 201.43 129.856 199.017 129.119C196.639 128.416 194.698 127.397 193.195 126.063L195.608 122.163C196.901 123.287 198.493 124.166 200.381 124.798C202.269 125.466 204.244 125.799 206.308 125.799C209.595 125.799 212.007 125.026 213.547 123.481C215.085 121.935 215.854 119.581 215.854 116.42V110.518L216.379 104.986L216.117 99.4003V91.7599H220.89V115.893C220.89 120.811 219.665 124.429 217.218 126.748C214.77 129.066 211.186 130.225 206.465 130.225ZM205.836 118.528C203.143 118.528 200.73 117.965 198.598 116.841C196.499 115.682 194.821 114.084 193.562 112.046C192.338 110.009 191.726 107.656 191.726 104.986C191.726 102.281 192.338 99.9272 193.562 97.9249C194.821 95.8872 196.499 94.3065 198.598 93.1826C200.73 92.0588 203.143 91.4965 205.836 91.4965C208.214 91.4965 210.381 91.988 212.34 92.9719C214.298 93.9203 215.854 95.3957 217.008 97.398C218.197 99.4003 218.792 101.93 218.792 104.986C218.792 108.006 218.197 110.518 217.008 112.521C215.854 114.523 214.298 116.034 212.34 117.052C210.381 118.036 208.214 118.528 205.836 118.528ZM206.413 114.101C208.266 114.101 209.909 113.715 211.344 112.942C212.777 112.169 213.896 111.098 214.7 109.728C215.54 108.358 215.959 106.777 215.959 104.986C215.959 103.194 215.54 101.613 214.7 100.243C213.896 98.8734 212.777 97.8196 211.344 97.0819C209.909 96.3088 208.266 95.9226 206.413 95.9226C204.559 95.9226 202.899 96.3088 201.43 97.0819C199.996 97.8196 198.86 98.8734 198.021 100.243C197.216 101.613 196.814 103.194 196.814 104.986C196.814 106.777 197.216 108.358 198.021 109.728C198.86 111.098 199.996 112.169 201.43 112.942C202.899 113.715 204.559 114.101 206.413 114.101ZM242.89 120.003C239.917 120.003 237.295 119.388 235.022 118.159C232.784 116.93 231.036 115.243 229.777 113.1C228.552 110.957 227.941 108.499 227.941 105.723C227.941 102.948 228.535 100.49 229.724 98.3465C230.948 96.2034 232.609 94.5353 234.707 93.3407C236.84 92.1115 239.235 91.4965 241.893 91.4965C244.586 91.4965 246.963 92.0934 249.027 93.288C251.09 94.4826 252.698 96.1688 253.852 98.3465C255.041 100.49 255.636 103.001 255.636 105.881C255.636 106.092 255.618 106.338 255.583 106.619C255.583 106.9 255.565 107.163 255.531 107.41H231.875V103.774H252.908L250.863 105.038C250.897 103.247 250.53 101.649 249.761 100.243C248.992 98.838 247.925 97.7495 246.561 96.9765C245.232 96.1688 243.677 95.7646 241.893 95.7646C240.144 95.7646 238.589 96.1688 237.225 96.9765C235.861 97.7495 234.794 98.8561 234.025 100.296C233.256 101.701 232.871 103.317 232.871 105.144V105.987C232.871 107.848 233.291 109.517 234.13 110.993C235.004 112.433 236.21 113.557 237.749 114.365C239.288 115.173 241.054 115.577 243.047 115.577C244.69 115.577 246.176 115.296 247.506 114.734C248.869 114.171 250.058 113.328 251.072 112.205L253.852 115.471C252.594 116.947 251.02 118.071 249.132 118.844C247.278 119.617 245.198 120.003 242.89 120.003ZM277.472 91.4965C279.744 91.4965 281.737 91.9353 283.451 92.8138C285.199 93.6922 286.563 95.0269 287.542 96.8184C288.522 98.6099 289.011 100.876 289.011 103.616V119.687H283.976V104.195C283.976 101.491 283.311 99.453 281.983 98.083C280.688 96.713 278.853 96.028 276.475 96.028C274.692 96.028 273.135 96.3795 271.807 97.0819C270.478 97.7842 269.446 98.8207 268.712 100.191C268.013 101.561 267.663 103.264 267.663 105.302V119.687H262.628V91.7599H267.453V99.2949L266.666 97.2926C267.575 95.4657 268.974 94.043 270.863 93.0246C272.751 92.0061 274.954 91.4965 277.472 91.4965ZM310.447 120.003C307.614 120.003 305.079 119.388 302.841 118.159C300.638 116.93 298.907 115.243 297.649 113.1C296.39 110.957 295.76 108.499 295.76 105.723C295.76 102.948 296.39 100.49 297.649 98.3465C298.907 96.2034 300.638 94.5353 302.841 93.3407C305.079 92.1115 307.614 91.4965 310.447 91.4965C312.965 91.4965 315.202 92.0061 317.161 93.0246C319.154 94.0084 320.692 95.4838 321.777 97.4507L317.948 99.9272C317.038 98.5572 315.919 97.5561 314.591 96.9238C313.297 96.2561 311.898 95.9226 310.394 95.9226C308.576 95.9226 306.95 96.3269 305.516 97.1345C304.082 97.9422 302.946 99.0842 302.107 100.56C301.268 102 300.848 103.721 300.848 105.723C300.848 107.726 301.268 109.465 302.107 110.94C302.946 112.415 304.082 113.557 305.516 114.365C306.95 115.173 308.576 115.577 310.394 115.577C311.898 115.577 313.297 115.261 314.591 114.628C315.919 113.961 317.038 112.942 317.948 111.572L321.777 113.996C320.692 115.928 319.154 117.421 317.161 118.475C315.202 119.493 312.965 120.003 310.447 120.003ZM329.143 130.225C327.815 130.225 326.521 129.997 325.262 129.54C324.003 129.119 322.919 128.486 322.01 127.643L324.16 123.85C324.86 124.517 325.629 125.026 326.468 125.378C327.307 125.729 328.199 125.905 329.143 125.905C330.368 125.905 331.381 125.588 332.185 124.956C332.99 124.324 333.742 123.2 334.441 121.584L336.172 117.737L336.696 117.105L347.606 91.7599H352.537L339.057 122.48C338.253 124.446 337.344 125.993 336.329 127.116C335.35 128.24 334.266 129.031 333.077 129.488C331.889 129.979 330.577 130.225 329.143 130.225ZM335.752 120.583L323.059 91.7599H328.304L339.109 116.631L335.752 120.583Z" fill="black"/>
<defs>
<linearGradient id="paint0_linear_28_508" x1="124.387" y1="-0.00010454" x2="4.64448" y2="132.316" gradientUnits="userSpaceOnUse">
<stop stop-color="#00D9FF"/>
<stop offset="1" stop-color="#6F52FF"/>
</linearGradient>
<linearGradient id="paint1_linear_28_508" x1="124.387" y1="1.91937e-06" x2="4.64421" y2="132.316" gradientUnits="userSpaceOnUse">
<stop stop-color="#00D9FF"/>
<stop offset="1" stop-color="#6F52FF"/>
</linearGradient>
</defs>
</svg>
