<svg width="944" height="235" viewBox="0 0 944 235" fill="none" xmlns="http://www.w3.org/2000/svg">
<path d="M65.5913 67.7885H108.033V19.3682C92.8139 19.153 56.5886 18.8517 33.4387 19.3682C10.2888 19.8847 1.50046 42.8251 0 54.2308V201.428C0 220.022 21.4351 231.556 32.1526 235H179.411C202.047 235 211.564 212.619 213.493 201.428V122.665H163.978V169.148C163.978 176.379 154.118 182.49 149.188 184.643H65.5913C56.3313 184.643 51.8728 174.313 50.8011 169.148V83.283C50.8011 71.9204 60.6613 68.2189 65.5913 67.7885Z" fill="url(#paint0_linear_70_2)"/>
<path d="M141.471 65.8517V32.2802H175.553V0H208.349V32.2802H175.553V65.8517H208.349V98.1319H175.553V65.8517H141.471Z" fill="url(#paint1_linear_70_2)"/>
<path d="M266.275 129.121V64.044H293.407C297.666 64.044 301.524 65.0356 304.981 67.0189C308.5 68.9402 311.278 71.6363 313.315 75.107C315.414 78.5778 316.464 82.6064 316.464 87.1928C316.464 91.7172 315.414 95.7457 313.315 99.2785C311.278 102.749 308.5 105.476 304.981 107.46C301.524 109.381 297.666 110.342 293.407 110.342H279.517V129.121H266.275ZM279.517 98.6277H291.832C293.931 98.6277 295.845 98.1939 297.574 97.3262C299.302 96.3965 300.66 95.095 301.648 93.4215C302.697 91.6862 303.222 89.6099 303.222 87.1928C303.222 84.7756 302.697 82.7303 301.648 81.0569C300.66 79.3216 299.302 78.02 297.574 77.1523C295.845 76.2226 293.931 75.7578 291.832 75.7578H279.517V98.6277ZM324.772 129.121V81.7077H337.551V129.121H324.772ZM331.161 76.0367C329.001 76.0367 327.118 75.262 325.513 73.7125C323.97 72.1011 323.198 70.2108 323.198 68.0415C323.198 65.8723 323.97 64.013 325.513 62.4635C327.118 60.8521 329.001 60.0464 331.161 60.0464C333.322 60.0464 335.174 60.8521 336.717 62.4635C338.322 64.013 339.125 65.8723 339.125 68.0415C339.125 70.2108 338.322 72.1011 336.717 73.7125C335.174 75.262 333.322 76.0367 331.161 76.0367ZM346.218 129.121L360.386 108.389C357.916 107.15 355.817 105.6 354.089 103.741C352.422 101.82 351.126 99.6503 350.2 97.2332C349.335 94.8161 348.903 92.244 348.903 89.5169V81.7077H361.589V89.5169C361.589 91.1284 361.929 92.6468 362.608 94.0723C363.287 95.4978 364.213 96.7064 365.386 97.698C366.559 98.6277 367.886 99.2785 369.368 99.6503L381.406 81.7077H395.296L381.683 101.603C384.523 102.656 386.931 104.175 388.906 106.158C390.882 108.141 392.394 110.435 393.444 113.038C394.493 115.579 395.018 118.306 395.018 121.219V129.121H382.332V121.219C382.332 119.359 381.869 117.655 380.943 116.106C380.078 114.556 378.875 113.316 377.331 112.387C375.85 111.395 374.183 110.868 372.331 110.806L360.108 129.121H346.218ZM428.781 129.121C423.41 129.121 418.718 128.098 414.705 126.053C410.754 123.946 407.668 121.095 405.445 117.5C403.285 113.905 402.204 109.877 402.204 105.414C402.204 100.394 403.223 96.0246 405.26 92.3059C407.297 88.5873 410.075 85.7053 413.594 83.66C417.113 81.6147 421.095 80.5921 425.54 80.5921C430.849 80.5921 435.139 81.7077 438.411 83.9389C441.744 86.1701 444.183 89.1761 445.726 92.9567C447.27 96.6754 448.041 100.828 448.041 105.414C448.041 106.034 448.01 106.778 447.949 107.646C447.887 108.451 447.794 109.071 447.671 109.505H415.724C416.218 111.426 417.051 113.038 418.224 114.339C419.459 115.641 420.971 116.632 422.762 117.314C424.614 117.934 426.682 118.244 428.966 118.244H442.115V129.121H428.781ZM415.631 100.952H435.355C435.232 99.7743 435.016 98.6897 434.707 97.698C434.398 96.6444 433.966 95.7147 433.41 94.909C432.855 94.1033 432.207 93.4215 431.466 92.8637C430.725 92.3059 429.861 91.8721 428.873 91.5622C427.885 91.2523 426.805 91.0974 425.632 91.0974C424.089 91.0974 422.7 91.3763 421.465 91.9341C420.292 92.4919 419.305 93.2356 418.502 94.1653C417.699 95.095 417.051 96.1486 416.557 97.3262C416.125 98.5037 415.817 99.7123 415.631 100.952ZM456.98 129.121V61.255H469.666V129.121H456.98ZM511.669 129.121C506.606 129.121 502.038 128.284 497.964 126.611C493.889 124.875 490.402 122.52 487.5 119.545C484.599 116.57 482.345 113.131 480.74 109.226C479.197 105.259 478.425 101.045 478.425 96.5824C478.425 92.12 479.197 87.9365 480.74 84.0319C482.345 80.0653 484.599 76.5945 487.5 73.6196C490.402 70.6446 493.889 68.3205 497.964 66.647C502.038 64.9117 506.606 64.044 511.669 64.044H521.762V75.7578H511.946C508.983 75.7578 506.267 76.2846 503.798 77.3383C501.328 78.3919 499.168 79.8794 497.316 81.8007C495.525 83.66 494.136 85.8602 493.149 88.4013C492.161 90.8804 491.667 93.6075 491.667 96.5824C491.667 99.5574 492.161 102.315 493.149 104.856C494.136 107.398 495.525 109.598 497.316 111.457C499.168 113.316 501.328 114.773 503.798 115.827C506.267 116.88 508.983 117.407 511.946 117.407H521.762V129.121H511.669ZM554.179 130.236C549.303 130.236 544.95 129.152 541.123 126.983C537.296 124.751 534.271 121.776 532.048 118.058C529.826 114.277 528.715 110.063 528.715 105.414C528.715 100.766 529.826 96.5824 532.048 92.8637C534.271 89.0831 537.296 86.1081 541.123 83.9389C544.95 81.7077 549.303 80.5921 554.179 80.5921C559.056 80.5921 563.409 81.7077 567.236 83.9389C571.063 86.1081 574.088 89.0831 576.311 92.8637C578.533 96.5824 579.644 100.766 579.644 105.414C579.644 110.063 578.533 114.277 576.311 118.058C574.088 121.776 571.063 124.751 567.236 126.983C563.409 129.152 559.056 130.236 554.179 130.236ZM554.179 119.359C556.772 119.359 558.995 118.74 560.847 117.5C562.76 116.26 564.211 114.587 565.199 112.48C566.248 110.373 566.773 108.017 566.773 105.414C566.773 102.811 566.248 100.456 565.199 98.3488C564.211 96.2416 562.76 94.5681 560.847 93.3286C558.995 92.089 556.772 91.4692 554.179 91.4692C551.587 91.4692 549.333 92.089 547.42 93.3286C545.568 94.5681 544.117 96.2416 543.068 98.3488C542.08 100.456 541.586 102.811 541.586 105.414C541.586 108.017 542.08 110.373 543.068 112.48C544.117 114.587 545.568 116.26 547.42 117.5C549.333 118.74 551.587 119.359 554.179 119.359ZM588.916 129.121V101.882C588.916 97.9769 589.811 94.4132 591.601 91.1903C593.453 87.9675 596.108 85.3954 599.565 83.4741C603.022 81.5528 607.158 80.5921 611.973 80.5921C616.85 80.5921 620.986 81.5528 624.381 83.4741C627.838 85.3954 630.462 87.9675 632.252 91.1903C634.104 94.4132 635.03 97.9769 635.03 101.882V129.121H622.344V101.882C622.344 99.9602 621.881 98.2249 620.955 96.6754C620.029 95.064 618.764 93.7934 617.159 92.8637C615.615 91.9341 613.887 91.4692 611.973 91.4692C610.059 91.4692 608.3 91.9341 606.695 92.8637C605.152 93.7934 603.917 95.064 602.991 96.6754C602.065 98.2249 601.602 99.9602 601.602 101.882V129.121H588.916ZM647.062 129.121V101.882C647.062 97.9769 647.957 94.4132 649.747 91.1903C651.599 87.9675 654.254 85.3954 657.711 83.4741C661.168 81.5528 665.304 80.5921 670.119 80.5921C674.996 80.5921 679.132 81.5528 682.527 83.4741C685.984 85.3954 688.608 87.9675 690.398 91.1903C692.25 94.4132 693.176 97.9769 693.176 101.882V129.121H680.49V101.882C680.49 99.9602 680.027 98.2249 679.101 96.6754C678.175 95.064 676.91 93.7934 675.305 92.8637C673.761 91.9341 672.033 91.4692 670.119 91.4692C668.205 91.4692 666.446 91.9341 664.84 92.8637C663.298 93.7934 662.063 95.064 661.137 96.6754C660.211 98.2249 659.748 99.9602 659.748 101.882V129.121H647.062ZM729.005 129.121C723.634 129.121 718.942 128.098 714.93 126.053C710.979 123.946 707.892 121.095 705.67 117.5C703.509 113.905 702.429 109.877 702.429 105.414C702.429 100.394 703.447 96.0246 705.484 92.3059C707.522 88.5873 710.3 85.7053 713.818 83.66C717.337 81.6147 721.319 80.5921 725.764 80.5921C731.073 80.5921 735.363 81.7077 738.635 83.9389C741.969 86.1701 744.407 89.1761 745.95 92.9567C747.494 96.6754 748.265 100.828 748.265 105.414C748.265 106.034 748.235 106.778 748.173 107.646C748.111 108.451 748.018 109.071 747.895 109.505H715.948C716.442 111.426 717.275 113.038 718.448 114.339C719.683 115.641 721.195 116.632 722.986 117.314C724.838 117.934 726.906 118.244 729.19 118.244H742.339V129.121H729.005ZM715.856 100.952H735.579C735.456 99.7743 735.24 98.6897 734.931 97.698C734.622 96.6444 734.19 95.7147 733.635 94.909C733.079 94.1033 732.431 93.4215 731.69 92.8637C730.949 92.3059 730.085 91.8721 729.097 91.5622C728.11 91.2523 727.029 91.0974 725.856 91.0974C724.313 91.0974 722.924 91.3763 721.689 91.9341C720.516 92.4919 719.529 93.2356 718.726 94.1653C717.924 95.095 717.275 96.1486 716.782 97.3262C716.349 98.5037 716.041 99.7123 715.856 100.952ZM779.891 129.121C775.014 129.121 770.662 128.067 766.834 125.96C763.007 123.853 759.982 121.033 757.759 117.5C755.537 113.905 754.426 109.877 754.426 105.414C754.426 100.952 755.537 96.9543 757.759 93.4215C759.982 89.8268 763.007 86.9758 766.834 84.8686C770.662 82.7613 775.014 81.7077 779.891 81.7077H785.817V92.5849H779.891C777.298 92.5849 775.045 93.1427 773.131 94.2583C771.279 95.3739 769.828 96.9233 768.779 98.9066C767.791 100.828 767.297 102.997 767.297 105.414C767.297 107.831 767.791 110.032 768.779 112.015C769.828 113.936 771.279 115.455 773.131 116.57C775.045 117.686 777.298 118.244 779.891 118.244H785.817V129.121H779.891ZM811.032 129.121C806.835 129.121 803.532 127.912 801.124 125.495C798.778 123.078 797.605 119.793 797.605 115.641V69.8079H810.292V115.269C810.292 116.075 810.569 116.787 811.125 117.407C811.742 117.965 812.452 118.244 813.255 118.244H823.533V129.121H811.032ZM789.549 92.5849V81.7077H823.533V92.5849H789.549Z" fill="white"/>
<path d="M259.703 205.302L288.242 142.033H297.154L325.783 205.302H316.33L290.852 147.095H294.453L268.976 205.302H259.703ZM271.857 189.485L274.287 182.254H309.758L312.369 189.485H271.857ZM354.37 223.379C349.989 223.379 345.728 222.747 341.587 221.481C337.504 220.277 334.173 218.528 331.594 216.239L335.735 209.55C337.955 211.478 340.686 212.985 343.927 214.07C347.168 215.215 350.558 215.787 354.1 215.787C359.741 215.787 363.882 214.461 366.524 211.81C369.164 209.159 370.485 205.122 370.485 199.699V189.576L371.386 180.085L370.935 170.504V157.399H379.128V198.795C379.128 207.23 377.026 213.437 372.826 217.414C368.624 221.391 362.473 223.379 354.37 223.379ZM353.29 203.314C348.668 203.314 344.527 202.349 340.866 200.422C337.265 198.433 334.384 195.692 332.224 192.197C330.122 188.701 329.073 184.665 329.073 180.085C329.073 175.446 330.122 171.408 332.224 167.974C334.384 164.478 337.265 161.767 340.866 159.839C344.527 157.911 348.668 156.947 353.29 156.947C357.371 156.947 361.092 157.79 364.453 159.477C367.814 161.104 370.485 163.635 372.466 167.07C374.506 170.504 375.527 174.843 375.527 180.085C375.527 185.267 374.506 189.576 372.466 193.01C370.485 196.445 367.814 199.036 364.453 200.783C361.092 202.471 357.371 203.314 353.29 203.314ZM354.28 195.722C357.461 195.722 360.281 195.059 362.743 193.733C365.203 192.407 367.123 190.57 368.505 188.22C369.945 185.87 370.665 183.158 370.665 180.085C370.665 177.012 369.945 174.301 368.505 171.951C367.123 169.601 365.203 167.793 362.743 166.527C360.281 165.201 357.461 164.539 354.28 164.539C351.099 164.539 348.249 165.201 345.728 166.527C343.266 167.793 341.316 169.601 339.876 171.951C338.495 174.301 337.805 177.012 337.805 180.085C337.805 183.158 338.495 185.87 339.876 188.22C341.316 190.57 343.266 192.407 345.728 193.733C348.249 195.059 351.099 195.722 354.28 195.722ZM416.888 205.845C411.786 205.845 407.285 204.79 403.384 202.681C399.542 200.573 396.542 197.68 394.381 194.004C392.28 190.328 391.23 186.111 391.23 181.351C391.23 176.59 392.25 172.373 394.291 168.697C396.391 165.021 399.243 162.159 402.844 160.11C406.504 158.002 410.616 156.947 415.177 156.947C419.798 156.947 423.879 157.971 427.421 160.02C430.962 162.069 433.723 164.961 435.704 168.697C437.743 172.373 438.764 176.68 438.764 181.622C438.764 181.983 438.734 182.405 438.674 182.887C438.674 183.369 438.644 183.821 438.584 184.243H397.982V178.006H434.083L430.572 180.176C430.631 177.102 430.001 174.361 428.681 171.951C427.361 169.54 425.531 167.673 423.19 166.347C420.908 164.961 418.238 164.268 415.177 164.268C412.176 164.268 409.506 164.961 407.165 166.347C404.824 167.673 402.993 169.571 401.673 172.041C400.352 174.452 399.693 177.223 399.693 180.356V181.802C399.693 184.996 400.413 187.858 401.853 190.389C403.353 192.859 405.424 194.788 408.065 196.174C410.706 197.559 413.737 198.252 417.158 198.252C419.978 198.252 422.529 197.771 424.81 196.806C427.151 195.842 429.191 194.396 430.932 192.468L435.704 198.072C433.543 200.602 430.842 202.53 427.601 203.856C424.419 205.182 420.849 205.845 416.888 205.845ZM476.243 156.947C480.144 156.947 483.565 157.699 486.506 159.206C489.506 160.713 491.847 163.002 493.528 166.076C495.209 169.149 496.049 173.035 496.049 177.735V205.302H487.406V178.729C487.406 174.09 486.265 170.595 483.985 168.245C481.764 165.895 478.613 164.72 474.532 164.72C471.471 164.72 468.8 165.323 466.52 166.527C464.24 167.732 462.469 169.51 461.208 171.86C460.008 174.21 459.408 177.132 459.408 180.627V205.302H450.765V157.399H459.048V170.324L457.697 166.889C459.257 163.755 461.658 161.315 464.899 159.568C468.14 157.821 471.922 156.947 476.243 156.947ZM532.84 205.845C527.979 205.845 523.627 204.79 519.786 202.681C516.005 200.573 513.034 197.68 510.874 194.004C508.713 190.328 507.633 186.111 507.633 181.351C507.633 176.59 508.713 172.373 510.874 168.697C513.034 165.021 516.005 162.159 519.786 160.11C523.627 158.002 527.979 156.947 532.84 156.947C537.162 156.947 541.002 157.821 544.364 159.568C547.785 161.255 550.425 163.786 552.286 167.16L545.714 171.408C544.153 169.058 542.233 167.341 539.953 166.256C537.731 165.111 535.33 164.539 532.75 164.539C529.629 164.539 526.838 165.232 524.378 166.618C521.916 168.003 519.967 169.962 518.526 172.493C517.086 174.963 516.365 177.916 516.365 181.351C516.365 184.785 517.086 187.768 518.526 190.299C519.967 192.829 521.916 194.788 524.378 196.174C526.838 197.559 529.629 198.252 532.75 198.252C535.33 198.252 537.731 197.71 539.953 196.626C542.233 195.48 544.153 193.733 545.714 191.383L552.286 195.541C550.425 198.855 547.785 201.416 544.364 203.224C541.002 204.971 537.162 205.845 532.84 205.845ZM564.93 223.379C562.65 223.379 560.429 222.988 558.268 222.204C556.107 221.481 554.248 220.397 552.686 218.951L556.377 212.443C557.579 213.588 558.898 214.461 560.339 215.064C561.779 215.667 563.309 215.968 564.93 215.968C567.031 215.968 568.772 215.426 570.152 214.341C571.533 213.256 572.823 211.329 574.023 208.556L576.994 201.958L577.894 200.874L596.62 157.399H605.082L581.945 210.093C580.565 213.467 579.005 216.119 577.264 218.047C575.584 219.974 573.723 221.33 571.682 222.114C569.642 222.957 567.392 223.379 564.93 223.379ZM576.273 206.839L554.487 157.399H563.49L582.035 200.06L576.273 206.839Z" fill="white"/>
<defs>
<linearGradient id="paint0_linear_70_2" x1="213.493" y1="-0.000201449" x2="8.10793" y2="227.089" gradientUnits="userSpaceOnUse">
<stop stop-color="#00D9FF"/>
<stop offset="1" stop-color="#6F52FF"/>
</linearGradient>
<linearGradient id="paint1_linear_70_2" x1="213.493" y1="3.29235e-06" x2="8.10796" y2="227.089" gradientUnits="userSpaceOnUse">
<stop stop-color="#00D9FF"/>
<stop offset="1" stop-color="#6F52FF"/>
</linearGradient>
</defs>
</svg>
